<?xml version="1.0" encoding="UTF-8" standalone="no"?>
<!DOCTYPE svg PUBLIC "-//W3C//DTD SVG 1.1//EN" "http://www.w3.org/Graphics/SVG/1.1/DTD/svg11.dtd">
<svg xmlns="http://www.w3.org/2000/svg" version="1.1" viewBox="0 0 512 408">
<g stroke-width="2.00" fill="none" stroke-linecap="butt">
<path stroke="#8513fb" vector-effect="non-scaling-stroke" d="
  M 273.06 0.00
  Q 252.47 0.55 273.25 0.70
  Q 287.00 0.79 300.75 1.12
  Q 301.13 1.13 300.97 1.41
  A 0.52 0.42 10.7 0 1 300.56 1.63
  Q 297.60 1.73 294.75 2.51
  Q 293.84 2.76 294.75 2.76
  L 299.50 2.75
  A 0.17 0.15 -73.8 0 1 299.62 3.00
  C 299.37 3.45 284.37 3.47 282.50 3.53
  A 1.69 0.55 5.6 0 0 281.51 3.75
  Q 280.23 4.65 278.74 4.22
  A 0.39 0.12 -60.8 0 0 278.47 4.48
  Q 278.29 4.82 278.13 4.31
  Q 278.00 3.84 277.90 4.18
  Q 277.68 4.99 277.51 4.51
  A 0.58 0.39 -8.6 0 0 276.96 4.25
  L 274.00 4.42
  Q 273.71 4.44 273.03 4.34
  Q 272.41 4.24 271.89 4.66
  Q 271.45 5.01 272.04 4.98
  Q 275.77 4.81 279.40 5.52
  C 284.99 6.60 290.00 6.22 295.45 6.28
  C 295.72 6.28 297.13 6.96 295.50 6.96
  Q 278.76 6.95 261.99 6.98
  A 1.04 1.03 19.2 0 0 261.18 7.37
  Q 231.18 45.39 200.92 83.20
  Q 198.38 86.39 194.30 86.03
  A 1.51 1.21 -54.7 0 0 193.40 86.29
  C 192.10 87.18 188.34 86.86 186.67 86.92
  C 181.69 87.09 177.82 89.92 174.78 93.60
  A 1.26 0.87 11.4 0 1 173.96 93.95
  C 172.01 94.05 170.46 98.43 169.90 99.66
  C 168.11 103.50 165.92 106.85 165.94 111.60
  C 165.94 112.93 165.01 113.97 165.02 115.42
  C 165.06 120.44 165.73 127.92 162.32 132.06
  Q 151.15 145.62 140.48 159.59
  C 138.95 161.59 136.68 163.51 135.12 165.92
  A 1.24 0.78 -66.3 0 1 134.25 166.51
  L 133.76 166.50
  A 1.04 0.36 -59.8 0 0 133.11 167.06
  L 127.36 175.61
  A 0.98 0.93 17.3 0 1 126.53 176.02
  Q 124.95 175.99 124.95 177.24
  A 1.66 0.93 74.4 0 1 124.73 178.14
  Q 116.28 190.15 107.11 201.61
  C 88.71 224.58 70.56 247.74 52.15 270.69
  A 1.52 1.28 68.3 0 0 51.85 271.59
  Q 51.81 273.64 50.23 275.25"
/>
<path stroke="#7c12f8" vector-effect="non-scaling-stroke" d="
  M 443.75 18.71
  Q 434.33 29.85 425.34 41.33
  C 398.68 75.39 371.81 109.36 344.58 142.96
  Q 343.15 144.73 342.61 142.52
  C 339.99 131.74 336.10 121.04 327.51 113.05
  C 326.48 112.09 321.16 106.38 320.26 106.54
  A 1.03 0.67 -20.3 0 1 319.45 106.36
  Q 316.11 103.02 310.01 100.22
  Q 297.61 94.51 287.87 92.07
  C 285.93 91.58 284.30 92.22 282.26 91.83
  Q 279.27 91.26 278.18 91.23
  C 274.28 91.10 270.73 89.98 266.91 90.10
  C 261.11 90.27 254.84 89.48 249.70 89.49
  Q 225.41 89.52 201.15 89.47
  Q 199.94 89.47 197.37 90.11
  C 194.45 90.83 190.90 89.47 188.96 89.44
  C 185.52 89.37 178.67 90.11 176.71 93.49
  A 1.84 1.81 0.4 0 1 176.03 94.15
  Q 172.84 95.91 171.21 99.15
  C 170.52 100.53 169.35 101.30 169.06 102.93
  C 168.72 104.93 167.98 106.77 167.92 108.73
  Q 167.68 117.14 167.71 125.56
  Q 167.79 146.91 167.96 168.25
  C 167.96 168.92 167.31 169.47 167.35 170.27
  C 167.67 176.52 167.30 182.67 167.89 188.90
  C 168.01 190.18 167.03 194.04 167.23 194.63
  Q 167.47 195.35 167.47 195.57
  Q 167.20 217.22 167.27 238.88
  C 167.27 240.33 166.36 242.14 166.45 243.25
  C 166.74 246.77 165.57 250.48 166.29 253.77
  C 166.78 256.02 166.01 258.55 166.11 260.93
  C 166.25 264.33 165.52 267.46 166.11 270.92
  Q 166.21 271.51 166.19 272.04
  Q 165.48 285.74 166.81 273.55
  Q 166.91 272.66 166.91 273.55
  L 166.89 281.86
  A 0.38 0.34 6.1 0 0 167.20 282.20
  C 168.18 282.40 167.60 300.14 167.14 302.92
  C 166.32 307.87 168.47 312.03 169.77 316.43
  C 170.39 318.53 171.76 319.52 173.50 320.57
  Q 173.96 320.85 174.21 321.26
  Q 176.19 324.42 179.82 325.18
  Q 182.27 325.70 180.71 327.68
  C 160.20 353.65 139.43 379.41 119.05 405.51
  Q 118.49 406.23 119.21 406.24
  L 126.44 406.33
  A 0.80 0.16 -2.3 0 1 127.07 406.43
  Q 127.39 406.71 126.90 406.85
  Q 126.79 406.88 126.90 406.88
  Q 127.67 406.85 128.00 407.46"
/>
<path stroke="#7912f7" vector-effect="non-scaling-stroke" d="
  M 128.00 407.46
  Q 116.78 407.38 105.56 407.69
  Q 105.10 407.70 105.56 407.70
  L 223.94 407.93"
/>
<path stroke="#7511f6" vector-effect="non-scaling-stroke" d="
  M 457.71 110.25
  L 457.49 109.77
  Q 457.31 109.38 457.22 109.75
  L 456.48 112.48
  A 1.30 1.20 -8.9 0 1 455.86 113.26
  Q 454.42 114.06 452.71 116.20
  Q 403.48 178.22 354.22 240.23
  Q 353.14 241.59 352.65 239.92
  C 351.90 237.40 349.31 228.12 346.96 227.14
  Q 346.48 226.93 346.68 227.44
  C 348.29 231.42 351.50 237.80 351.85 241.94
  Q 351.90 242.61 351.69 241.96
  Q 349.30 234.55 345.56 227.73"
/>
<path stroke="#7611f3" vector-effect="non-scaling-stroke" d="
  M 345.56 227.73
  L 339.07 217.38
  A 1.25 0.69 65.7 0 0 338.24 216.76
  L 336.75 216.75
  A 0.92 0.91 -16.3 0 1 335.98 216.33
  C 333.25 212.16 329.60 210.61 326.19 207.34
  C 323.77 205.02 321.60 203.23 319.39 201.11
  A 1.53 0.72 -86.7 0 1 319.04 200.24
  Q 318.71 197.62 319.65 195.18
  Q 319.82 194.75 319.92 195.28
  L 320.08 196.21
  Q 320.20 196.86 320.21 196.19
  C 320.28 191.80 324.70 187.30 327.21 183.91
  C 330.61 179.30 332.61 174.07 335.26 168.96
  Q 335.48 168.53 336.10 166.36
  Q 337.53 161.34 337.98 156.18
  C 338.33 152.09 337.34 147.24 337.15 142.77
  Q 337.12 142.02 336.82 142.31
  L 336.56 142.57
  Q 336.22 142.90 336.14 142.49
  C 334.81 135.37 331.31 125.53 325.72 120.73
  Q 324.75 119.91 323.49 119.50"
/>
<path stroke="#ba86fb" vector-effect="non-scaling-stroke" d="
  M 323.49 119.50
  C 308.33 99.33 285.87 95.11 262.17 95.04
  Q 220.02 94.92 177.78 95.04
  A 0.50 0.50 -0.6 0 0 177.29 95.54
  L 177.29 190.00"
/>
<path stroke="#b881fa" vector-effect="non-scaling-stroke" d="
  M 177.29 190.00
  L 177.18 194.70"
/>
<path stroke="#7611f3" vector-effect="non-scaling-stroke" d="
  M 177.18 194.70
  L 176.56 198.95
  Q 176.55 199.03 176.55 198.94
  Q 176.47 190.77 176.52 182.56
  C 176.54 180.12 175.45 182.48 175.46 183.16
  C 175.81 195.18 174.98 207.58 175.01 219.22
  A 0.31 0.24 11.0 0 0 175.23 219.47
  C 175.82 219.64 174.64 231.41 174.52 232.70
  C 174.10 237.21 174.44 242.17 174.07 246.94
  C 173.41 255.27 173.54 261.69 173.47 269.19
  C 173.45 270.93 172.76 272.57 172.76 274.38
  Q 172.72 284.34 172.78 294.32
  Q 172.78 294.59 172.89 294.34
  L 173.05 293.99
  Q 173.31 293.40 173.27 294.06
  Q 172.74 302.03 174.92 309.63
  C 175.17 310.53 176.85 313.83 177.21 310.00"
/>
<path stroke="#b881fa" vector-effect="non-scaling-stroke" d="
  M 177.21 310.00
  Q 177.00 311.68 177.64 313.09"
/>
<path stroke="#7611f3" vector-effect="non-scaling-stroke" d="
  M 177.64 313.09
  Q 181.92 320.38 190.81 320.46
  Q 191.59 320.46 192.01 321.09
  A 1.17 0.89 71.2 0 0 192.74 321.58
  Q 197.15 322.10 201.51 321.31
  A 0.49 0.19 49.0 0 1 201.85 321.49
  C 202.16 321.80 216.68 321.49 218.45 321.54
  A 0.80 0.53 72.2 0 1 219.01 321.99
  L 220.03 323.95
  A 1.16 0.45 -3.8 0 0 221.00 324.25
  L 233.50 324.25
  A 1.83 1.02 47.4 0 1 234.37 324.54
  Q 236.44 325.85 239.75 325.20
  Q 240.35 325.08 240.86 325.09
  L 265.46 325.60"
/>
<path stroke="#7511f6" vector-effect="non-scaling-stroke" d="
  M 265.46 325.60
  Q 272.32 327.93 279.53 327.22
  A 1.14 0.12 -6.0 0 1 280.52 327.22
  Q 281.84 328.22 283.50 327.98
  Q 284.26 327.87 283.75 328.63
  Q 280.80 332.96 277.51 337.02
  Q 264.32 353.25 251.34 369.64
  Q 237.73 386.81 224.22 404.06
  A 1.59 0.85 76.3 0 0 223.98 404.99
  L 224.00 407.00
  A 0.55 0.48 -0.0 0 1 223.45 407.48
  L 128.00 407.46"
/>
<path stroke="#b885f6" vector-effect="non-scaling-stroke" d="
  M 323.49 119.50
  Q 329.03 127.83 331.16 137.53"
/>
<path stroke="#faf5fe" vector-effect="non-scaling-stroke" d="
  M 331.16 137.53
  Q 329.06 135.95 329.06 133.17
  A 1.15 0.53 30.3 0 0 328.55 132.44
  Q 328.02 132.03 328.50 131.50
  A 0.45 0.26 32.9 0 0 328.24 131.00
  Q 326.90 130.24 326.84 128.68
  A 0.80 0.63 -81.4 0 0 326.47 128.03
  Q 325.26 127.45 326.07 126.24
  A 0.53 0.18 54.7 0 0 325.93 125.78
  Q 324.55 123.69 322.67 123.24
  A 1.10 0.93 -54.9 0 0 321.79 123.47
  Q 319.51 125.32 316.91 126.62
  C 310.15 130.00 303.83 134.23 297.17 138.03
  Q 295.03 139.25 296.65 141.10
  Q 297.36 141.91 297.64 144.97
  Q 297.68 145.48 297.87 145.96
  Q 299.01 148.84 296.54 149.75"
/>
<path stroke="#b885f6" vector-effect="non-scaling-stroke" d="
  M 296.54 149.75
  Q 294.94 135.43 283.20 129.01
  C 272.94 123.40 263.56 123.60 249.39 123.53
  Q 231.48 123.43 213.53 123.55
  A 0.53 0.45 -0.0 0 0 213.00 124.00
  L 213.00 186.75
  A 0.50 0.49 0.0 0 0 213.50 187.24
  L 245.75 187.21"
/>
<path stroke="#ba86fb" vector-effect="non-scaling-stroke" d="
  M 245.75 187.21
  L 250.25 187.21"
/>
<path stroke="#faf5fe" vector-effect="non-scaling-stroke" d="
  M 250.25 187.21
  Q 251.92 186.87 252.31 187.64
  A 0.44 0.37 -16.5 0 1 251.94 188.20
  C 248.41 188.75 244.44 188.48 241.36 188.74
  Q 230.63 189.68 219.88 189.80
  C 215.58 189.85 212.63 190.64 209.22 192.72
  Q 195.65 201.01 182.30 208.54
  Q 180.24 209.71 180.12 212.07
  C 179.79 218.32 178.74 224.34 178.80 230.34
  Q 178.85 236.16 178.70 241.98
  A 0.13 0.12 14.7 0 1 178.52 242.08
  C 178.08 241.88 177.97 249.95 177.97 250.66
  A 0.39 0.30 87.6 0 1 177.71 251.02
  Q 177.43 251.06 177.43 250.75
  Q 177.62 214.31 177.29 190.00"
/>
<path stroke="#7211f2" vector-effect="non-scaling-stroke" d="
  M 265.46 325.60
  Q 276.53 325.13 287.51 324.57
  C 291.45 324.37 295.07 323.04 298.92 322.13
  C 309.77 319.57 318.52 315.04 327.55 308.04
  C 330.05 306.10 332.07 303.73 333.93 302.12
  Q 340.50 296.45 342.97 290.74
  C 344.80 286.53 346.90 282.83 347.89 278.88
  C 348.95 274.72 351.14 270.60 351.28 266.29
  Q 351.37 263.81 351.69 259.73
  Q 352.99 243.41 345.56 227.73"
/>
<path stroke="#b580f6" vector-effect="non-scaling-stroke" d="
  M 177.64 313.09
  Q 222.01 312.96 266.14 312.98
  C 290.52 312.99 317.34 307.20 332.71 286.25"
/>
<path stroke="#b27bf5" vector-effect="non-scaling-stroke" d="
  M 332.71 286.25
  Q 345.33 268.05 342.95 245.78"
/>
<path stroke="#b580f6" vector-effect="non-scaling-stroke" d="
  M 342.95 245.78
  C 341.06 219.15 319.72 200.46 293.79 197.85
  Q 292.18 197.69 293.75 197.28
  C 321.15 190.09 337.20 165.19 331.16 137.53"
/>
<path stroke="#f4ebfd" vector-effect="non-scaling-stroke" d="
  M 342.95 245.78
  Q 341.03 242.48 340.93 238.56
  A 0.93 0.73 17.5 0 0 340.46 237.87
  Q 340.02 237.62 339.97 237.26
  Q 339.18 232.31 336.08 228.43
  Q 334.49 226.42 333.61 224.06
  Q 333.44 223.60 333.04 223.27
  Q 331.53 222.00 330.79 220.09
  A 0.87 0.83 82.0 0 0 330.11 219.55
  C 328.17 219.33 326.99 219.30 325.22 220.37
  Q 316.18 225.84 307.60 231.00
  Q 306.00 231.96 306.79 233.69
  Q 309.01 238.55 308.19 243.83
  A 1.27 1.00 -65.4 0 0 308.42 244.78
  C 309.77 246.30 308.64 251.63 307.98 253.78
  Q 307.46 255.48 307.80 256.50
  Q 308.00 257.09 307.95 257.45
  Q 306.73 265.00 301.55 270.57
  Q 300.87 271.30 300.00 270.71"
/>
<path stroke="#b580f6" vector-effect="non-scaling-stroke" d="
  M 300.00 270.71
  Q 309.44 257.38 306.40 241.96
  C 302.60 222.69 285.44 215.59 267.49 214.44
  Q 250.25 213.34 213.50 214.18
  A 0.57 0.51 89.5 0 0 213.00 214.75
  L 213.00 284.00
  A 0.49 0.49 0.0 0 0 213.49 284.49
  L 224.00 284.46"
/>
<path stroke="#b881fa" vector-effect="non-scaling-stroke" d="
  M 224.00 284.46
  L 239.25 284.29"
/>
<path stroke="#f4ebfd" vector-effect="non-scaling-stroke" d="
  M 239.25 284.29
  L 243.20 284.49
  A 0.69 0.24 0.2 0 1 243.77 284.69
  L 243.91 284.99
  A 0.64 0.43 -22.6 0 1 243.47 285.66
  Q 239.25 287.27 238.25 287.27
  C 233.58 287.27 228.13 286.93 223.91 289.28
  C 212.83 295.45 202.21 302.62 190.96 308.39
  C 188.77 309.52 189.66 310.31 191.33 310.36
  Q 229.34 311.57 267.36 311.20
  C 268.98 311.18 269.93 311.94 271.69 311.62
  C 275.21 310.98 278.97 311.21 282.16 310.76
  C 286.98 310.08 292.33 309.58 296.92 308.06
  C 302.32 306.27 309.09 303.43 314.76 300.45
  Q 319.65 297.87 323.62 294.12
  Q 327.60 290.35 331.17 286.16
  Q 331.96 285.23 332.71 286.25"
/>
<path stroke="#b580f6" vector-effect="non-scaling-stroke" d="
  M 177.21 310.00
  L 177.18 194.70"
/>
<path stroke="#b881fa" vector-effect="non-scaling-stroke" d="
  M 250.25 187.21
  Q 262.82 187.51 274.75 183.71"
/>
<path stroke="#b580f6" vector-effect="non-scaling-stroke" d="
  M 274.75 183.71
  Q 298.79 175.61 296.54 149.75"
/>
<path stroke="#7611f3" vector-effect="non-scaling-stroke" d="
  M 274.75 183.71
  Q 275.38 182.03 276.90 181.16
  Q 277.51 180.81 280.38 178.36
  Q 284.88 174.53 288.01 169.59
  C 290.49 165.68 290.39 160.84 290.77 156.43
  C 291.40 148.92 285.01 140.17 278.63 136.64
  Q 274.77 134.50 273.74 134.27
  Q 255.65 130.16 237.08 130.80
  C 234.09 130.90 232.15 129.27 228.80 130.87
  Q 225.89 132.26 222.75 133.09
  A 1.34 1.20 -78.4 0 0 222.01 133.64
  Q 221.34 134.64 220.75 134.86
  C 212.84 137.85 215.89 150.55 215.94 156.62
  C 216.01 164.76 214.57 183.13 225.69 185.53
  A 2.80 2.70 -14.9 0 1 227.11 186.32
  Q 227.31 186.52 227.09 186.78
  Q 226.90 187.02 227.20 187.02
  L 245.75 187.21"
/>
<path stroke="#7c12f8" vector-effect="non-scaling-stroke" d="
  M 275.89 141.66
  L 276.47 141.81
  Q 276.99 141.94 276.68 141.50
  Q 275.43 139.68 273.76 139.20
  Q 253.50 133.39 231.22 134.98
  C 228.17 135.20 225.76 136.87 223.01 138.08
  A 1.27 1.07 -7.2 0 0 222.33 138.82
  L 221.19 142.99
  Q 221.05 143.48 221.11 144.01
  Q 221.22 144.93 221.05 147.01
  C 220.69 151.68 219.65 172.97 223.82 177.95
  C 228.21 183.20 240.01 183.92 246.43 181.58
  C 249.02 180.63 252.56 180.99 255.33 180.99
  C 259.79 181.00 264.19 179.30 268.46 178.15
  C 275.35 176.31 281.41 172.52 283.94 165.59
  C 286.79 157.74 284.66 146.01 275.98 142.26
  A 0.49 0.33 82.5 0 1 275.75 142.00
  L 275.68 141.82
  Q 275.58 141.57 275.89 141.66"
/>
<path stroke="#b27bf5" vector-effect="non-scaling-stroke" d="
  M 300.00 270.71
  Q 295.09 276.44 287.94 279.19"
/>
<path stroke="#7611f3" vector-effect="non-scaling-stroke" d="
  M 287.94 279.19
  Q 298.27 271.54 301.25 259.26
  C 301.87 256.70 303.03 254.31 302.22 251.30
  C 300.71 245.68 300.60 241.61 297.54 237.65
  Q 295.17 234.60 293.77 233.07
  Q 291.83 230.96 289.13 229.78
  C 287.15 228.91 286.11 227.25 283.93 226.66
  Q 279.53 225.46 275.20 224.03
  C 273.89 223.59 272.13 224.01 271.31 223.71
  C 267.09 222.15 263.62 222.35 259.26 222.07
  Q 247.58 221.34 235.86 221.23
  C 226.73 221.14 220.23 222.74 216.68 231.26
  Q 216.00 232.90 216.07 235.84
  Q 216.15 239.25 215.52 244.74
  Q 214.91 249.99 216.34 259.73
  C 217.43 267.10 215.66 272.41 219.66 278.90
  A 0.29 0.17 53.6 0 1 219.69 279.19
  L 219.56 279.31
  A 0.48 0.25 47.5 0 0 219.69 279.81
  L 222.99 283.50
  A 0.23 0.18 57.3 0 1 222.96 283.85
  Q 221.53 284.27 224.00 284.46"
/>
<path stroke="#b57cfa" vector-effect="non-scaling-stroke" d="
  M 239.25 284.29
  C 252.30 284.36 273.00 286.05 287.94 279.19"
/>
</g>
<path fill="#8913fc" d="
  M 104.81 0.00
  L 273.06 0.00
  Q 252.47 0.55 273.25 0.70
  Q 287.00 0.79 300.75 1.12
  Q 301.13 1.13 300.97 1.41
  A 0.52 0.42 10.7 0 1 300.56 1.63
  Q 297.60 1.73 294.75 2.51
  Q 293.84 2.76 294.75 2.76
  L 299.50 2.75
  A 0.17 0.15 -73.8 0 1 299.62 3.00
  C 299.37 3.45 284.37 3.47 282.50 3.53
  A 1.69 0.55 5.6 0 0 281.51 3.75
  Q 280.23 4.65 278.74 4.22
  A 0.39 0.12 -60.8 0 0 278.47 4.48
  Q 278.29 4.82 278.13 4.31
  Q 278.00 3.84 277.90 4.18
  Q 277.68 4.99 277.51 4.51
  A 0.58 0.39 -8.6 0 0 276.96 4.25
  L 274.00 4.42
  Q 273.71 4.44 273.03 4.34
  Q 272.41 4.24 271.89 4.66
  Q 271.45 5.01 272.04 4.98
  Q 275.77 4.81 279.40 5.52
  C 284.99 6.60 290.00 6.22 295.45 6.28
  C 295.72 6.28 297.13 6.96 295.50 6.96
  Q 278.76 6.95 261.99 6.98
  A 1.04 1.03 19.2 0 0 261.18 7.37
  Q 231.18 45.39 200.92 83.20
  Q 198.38 86.39 194.30 86.03
  A 1.51 1.21 -54.7 0 0 193.40 86.29
  C 192.10 87.18 188.34 86.86 186.67 86.92
  C 181.69 87.09 177.82 89.92 174.78 93.60
  A 1.26 0.87 11.4 0 1 173.96 93.95
  C 172.01 94.05 170.46 98.43 169.90 99.66
  C 168.11 103.50 165.92 106.85 165.94 111.60
  C 165.94 112.93 165.01 113.97 165.02 115.42
  C 165.06 120.44 165.73 127.92 162.32 132.06
  Q 151.15 145.62 140.48 159.59
  C 138.95 161.59 136.68 163.51 135.12 165.92
  A 1.24 0.78 -66.3 0 1 134.25 166.51
  L 133.76 166.50
  A 1.04 0.36 -59.8 0 0 133.11 167.06
  L 127.36 175.61
  A 0.98 0.93 17.3 0 1 126.53 176.02
  Q 124.95 175.99 124.95 177.24
  A 1.66 0.93 74.4 0 1 124.73 178.14
  Q 116.28 190.15 107.11 201.61
  C 88.71 224.58 70.56 247.74 52.15 270.69
  A 1.52 1.28 68.3 0 0 51.85 271.59
  Q 51.81 273.64 50.23 275.25
  C 46.66 260.40 40.80 244.38 30.66 232.85
  Q 18.58 219.13 -0.01 216.74
  L 0.00 191.19
  C 55.75 183.62 57.06 98.13 56.62 57.36
  Q 56.50 46.39 57.55 41.22
  C 62.19 18.31 81.05 1.26 104.81 0.00
  Z"
/>
<path fill="#8012f9" d="
  M 273.06 0.00
  L 407.56 0.00
  Q 429.93 1.41 443.75 18.71
  Q 434.33 29.85 425.34 41.33
  C 398.68 75.39 371.81 109.36 344.58 142.96
  Q 343.15 144.73 342.61 142.52
  C 339.99 131.74 336.10 121.04 327.51 113.05
  C 326.48 112.09 321.16 106.38 320.26 106.54
  A 1.03 0.67 -20.3 0 1 319.45 106.36
  Q 316.11 103.02 310.01 100.22
  Q 297.61 94.51 287.87 92.07
  C 285.93 91.58 284.30 92.22 282.26 91.83
  Q 279.27 91.26 278.18 91.23
  C 274.28 91.10 270.73 89.98 266.91 90.10
  C 261.11 90.27 254.84 89.48 249.70 89.49
  Q 225.41 89.52 201.15 89.47
  Q 199.94 89.47 197.37 90.11
  C 194.45 90.83 190.90 89.47 188.96 89.44
  C 185.52 89.37 178.67 90.11 176.71 93.49
  A 1.84 1.81 0.4 0 1 176.03 94.15
  Q 172.84 95.91 171.21 99.15
  C 170.52 100.53 169.35 101.30 169.06 102.93
  C 168.72 104.93 167.98 106.77 167.92 108.73
  Q 167.68 117.14 167.71 125.56
  Q 167.79 146.91 167.96 168.25
  C 167.96 168.92 167.31 169.47 167.35 170.27
  C 167.67 176.52 167.30 182.67 167.89 188.90
  C 168.01 190.18 167.03 194.04 167.23 194.63
  Q 167.47 195.35 167.47 195.57
  Q 167.20 217.22 167.27 238.88
  C 167.27 240.33 166.36 242.14 166.45 243.25
  C 166.74 246.77 165.57 250.48 166.29 253.77
  C 166.78 256.02 166.01 258.55 166.11 260.93
  C 166.25 264.33 165.52 267.46 166.11 270.92
  Q 166.21 271.51 166.19 272.04
  Q 165.48 285.74 166.81 273.55
  Q 166.91 272.66 166.91 273.55
  L 166.89 281.86
  A 0.38 0.34 6.1 0 0 167.20 282.20
  C 168.18 282.40 167.60 300.14 167.14 302.92
  C 166.32 307.87 168.47 312.03 169.77 316.43
  C 170.39 318.53 171.76 319.52 173.50 320.57
  Q 173.96 320.85 174.21 321.26
  Q 176.19 324.42 179.82 325.18
  Q 182.27 325.70 180.71 327.68
  C 160.20 353.65 139.43 379.41 119.05 405.51
  Q 118.49 406.23 119.21 406.24
  L 126.44 406.33
  A 0.80 0.16 -2.3 0 1 127.07 406.43
  Q 127.39 406.71 126.90 406.85
  Q 126.79 406.88 126.90 406.88
  Q 127.67 406.85 128.00 407.46
  Q 116.78 407.38 105.56 407.69
  Q 105.10 407.70 105.56 407.70
  L 223.94 407.93
  L 103.69 408.00
  C 80.37 406.05 62.00 389.24 57.51 366.64
  Q 56.49 361.50 56.62 350.30
  C 56.91 324.67 55.57 300.08 50.23 275.25
  Q 51.81 273.64 51.85 271.59
  A 1.52 1.28 68.3 0 1 52.15 270.69
  C 70.56 247.74 88.71 224.58 107.11 201.61
  Q 116.28 190.15 124.73 178.14
  A 1.66 0.93 74.4 0 0 124.95 177.24
  Q 124.95 175.99 126.53 176.02
  A 0.98 0.93 17.3 0 0 127.36 175.61
  L 133.11 167.06
  A 1.04 0.36 -59.8 0 1 133.76 166.50
  L 134.25 166.51
  A 1.24 0.78 -66.3 0 0 135.12 165.92
  C 136.68 163.51 138.95 161.59 140.48 159.59
  Q 151.15 145.62 162.32 132.06
  C 165.73 127.92 165.06 120.44 165.02 115.42
  C 165.01 113.97 165.94 112.93 165.94 111.60
  C 165.92 106.85 168.11 103.50 169.90 99.66
  C 170.46 98.43 172.01 94.05 173.96 93.95
  A 1.26 0.87 11.4 0 0 174.78 93.60
  C 177.82 89.92 181.69 87.09 186.67 86.92
  C 188.34 86.86 192.10 87.18 193.40 86.29
  A 1.51 1.21 -54.7 0 1 194.30 86.03
  Q 198.38 86.39 200.92 83.20
  Q 231.18 45.39 261.18 7.37
  A 1.04 1.03 19.2 0 1 261.99 6.98
  Q 278.76 6.95 295.50 6.96
  C 297.13 6.96 295.72 6.28 295.45 6.28
  C 290.00 6.22 284.99 6.60 279.40 5.52
  Q 275.77 4.81 272.04 4.98
  Q 271.45 5.01 271.89 4.66
  Q 272.41 4.24 273.03 4.34
  Q 273.71 4.44 274.00 4.42
  L 276.96 4.25
  A 0.58 0.39 -8.6 0 1 277.51 4.51
  Q 277.68 4.99 277.90 4.18
  Q 278.00 3.84 278.13 4.31
  Q 278.29 4.82 278.47 4.48
  A 0.39 0.12 -60.8 0 1 278.74 4.22
  Q 280.23 4.65 281.51 3.75
  A 1.69 0.55 5.6 0 1 282.50 3.53
  C 284.37 3.47 299.37 3.45 299.62 3.00
  A 0.17 0.15 -73.8 0 0 299.50 2.75
  L 294.75 2.76
  Q 293.84 2.76 294.75 2.51
  Q 297.60 1.73 300.56 1.63
  A 0.52 0.42 10.7 0 0 300.97 1.41
  Q 301.13 1.13 300.75 1.12
  Q 287.00 0.79 273.25 0.70
  Q 252.47 0.55 273.06 0.00
  Z"
/>
<path fill="#7811f7" d="
  M 443.75 18.71
  C 453.17 30.25 455.47 41.20 455.41 56.79
  C 455.34 74.77 455.48 89.44 457.71 110.25
  L 457.49 109.77
  Q 457.31 109.38 457.22 109.75
  L 456.48 112.48
  A 1.30 1.20 -8.9 0 1 455.86 113.26
  Q 454.42 114.06 452.71 116.20
  Q 403.48 178.22 354.22 240.23
  Q 353.14 241.59 352.65 239.92
  C 351.90 237.40 349.31 228.12 346.96 227.14
  Q 346.48 226.93 346.68 227.44
  C 348.29 231.42 351.50 237.80 351.85 241.94
  Q 351.90 242.61 351.69 241.96
  Q 349.30 234.55 345.56 227.73
  L 339.07 217.38
  A 1.25 0.69 65.7 0 0 338.24 216.76
  L 336.75 216.75
  A 0.92 0.91 -16.3 0 1 335.98 216.33
  C 333.25 212.16 329.60 210.61 326.19 207.34
  C 323.77 205.02 321.60 203.23 319.39 201.11
  A 1.53 0.72 -86.7 0 1 319.04 200.24
  Q 318.71 197.62 319.65 195.18
  Q 319.82 194.75 319.92 195.28
  L 320.08 196.21
  Q 320.20 196.86 320.21 196.19
  C 320.28 191.80 324.70 187.30 327.21 183.91
  C 330.61 179.30 332.61 174.07 335.26 168.96
  Q 335.48 168.53 336.10 166.36
  Q 337.53 161.34 337.98 156.18
  C 338.33 152.09 337.34 147.24 337.15 142.77
  Q 337.12 142.02 336.82 142.31
  L 336.56 142.57
  Q 336.22 142.90 336.14 142.49
  C 334.81 135.37 331.31 125.53 325.72 120.73
  Q 324.75 119.91 323.49 119.50
  C 308.33 99.33 285.87 95.11 262.17 95.04
  Q 220.02 94.92 177.78 95.04
  A 0.50 0.50 -0.6 0 0 177.29 95.54
  L 177.29 190.00
  L 177.18 194.70
  L 176.56 198.95
  Q 176.55 199.03 176.55 198.94
  Q 176.47 190.77 176.52 182.56
  C 176.54 180.12 175.45 182.48 175.46 183.16
  C 175.81 195.18 174.98 207.58 175.01 219.22
  A 0.31 0.24 11.0 0 0 175.23 219.47
  C 175.82 219.64 174.64 231.41 174.52 232.70
  C 174.10 237.21 174.44 242.17 174.07 246.94
  C 173.41 255.27 173.54 261.69 173.47 269.19
  C 173.45 270.93 172.76 272.57 172.76 274.38
  Q 172.72 284.34 172.78 294.32
  Q 172.78 294.59 172.89 294.34
  L 173.05 293.99
  Q 173.31 293.40 173.27 294.06
  Q 172.74 302.03 174.92 309.63
  C 175.17 310.53 176.85 313.83 177.21 310.00
  Q 177.00 311.68 177.64 313.09
  Q 181.92 320.38 190.81 320.46
  Q 191.59 320.46 192.01 321.09
  A 1.17 0.89 71.2 0 0 192.74 321.58
  Q 197.15 322.10 201.51 321.31
  A 0.49 0.19 49.0 0 1 201.85 321.49
  C 202.16 321.80 216.68 321.49 218.45 321.54
  A 0.80 0.53 72.2 0 1 219.01 321.99
  L 220.03 323.95
  A 1.16 0.45 -3.8 0 0 221.00 324.25
  L 233.50 324.25
  A 1.83 1.02 47.4 0 1 234.37 324.54
  Q 236.44 325.85 239.75 325.20
  Q 240.35 325.08 240.86 325.09
  L 265.46 325.60
  Q 272.32 327.93 279.53 327.22
  A 1.14 0.12 -6.0 0 1 280.52 327.22
  Q 281.84 328.22 283.50 327.98
  Q 284.26 327.87 283.75 328.63
  Q 280.80 332.96 277.51 337.02
  Q 264.32 353.25 251.34 369.64
  Q 237.73 386.81 224.22 404.06
  A 1.59 0.85 76.3 0 0 223.98 404.99
  L 224.00 407.00
  A 0.55 0.48 -0.0 0 1 223.45 407.48
  L 128.00 407.46
  Q 127.67 406.85 126.90 406.88
  Q 126.79 406.88 126.90 406.85
  Q 127.39 406.71 127.07 406.43
  A 0.80 0.16 -2.3 0 0 126.44 406.33
  L 119.21 406.24
  Q 118.49 406.23 119.05 405.51
  C 139.43 379.41 160.20 353.65 180.71 327.68
  Q 182.27 325.70 179.82 325.18
  Q 176.19 324.42 174.21 321.26
  Q 173.96 320.85 173.50 320.57
  C 171.76 319.52 170.39 318.53 169.77 316.43
  C 168.47 312.03 166.32 307.87 167.14 302.92
  C 167.60 300.14 168.18 282.40 167.20 282.20
  A 0.38 0.34 6.1 0 1 166.89 281.86
  L 166.91 273.55
  Q 166.91 272.66 166.81 273.55
  Q 165.48 285.74 166.19 272.04
  Q 166.21 271.51 166.11 270.92
  C 165.52 267.46 166.25 264.33 166.11 260.93
  C 166.01 258.55 166.78 256.02 166.29 253.77
  C 165.57 250.48 166.74 246.77 166.45 243.25
  C 166.36 242.14 167.27 240.33 167.27 238.88
  Q 167.20 217.22 167.47 195.57
  Q 167.47 195.35 167.23 194.63
  C 167.03 194.04 168.01 190.18 167.89 188.90
  C 167.30 182.67 167.67 176.52 167.35 170.27
  C 167.31 169.47 167.96 168.92 167.96 168.25
  Q 167.79 146.91 167.71 125.56
  Q 167.68 117.14 167.92 108.73
  C 167.98 106.77 168.72 104.93 169.06 102.93
  C 169.35 101.30 170.52 100.53 171.21 99.15
  Q 172.84 95.91 176.03 94.15
  A 1.84 1.81 0.4 0 0 176.71 93.49
  C 178.67 90.11 185.52 89.37 188.96 89.44
  C 190.90 89.47 194.45 90.83 197.37 90.11
  Q 199.94 89.47 201.15 89.47
  Q 225.41 89.52 249.70 89.49
  C 254.84 89.48 261.11 90.27 266.91 90.10
  C 270.73 89.98 274.28 91.10 278.18 91.23
  Q 279.27 91.26 282.26 91.83
  C 284.30 92.22 285.93 91.58 287.87 92.07
  Q 297.61 94.51 310.01 100.22
  Q 316.11 103.02 319.45 106.36
  A 1.03 0.67 -20.3 0 0 320.26 106.54
  C 321.16 106.38 326.48 112.09 327.51 113.05
  C 336.10 121.04 339.99 131.74 342.61 142.52
  Q 343.15 144.73 344.58 142.96
  C 371.81 109.36 398.68 75.39 425.34 41.33
  Q 434.33 29.85 443.75 18.71
  Z"
/>
<path fill="#fcfafe" d="
  M 323.49 119.50
  Q 329.03 127.83 331.16 137.53
  Q 329.06 135.95 329.06 133.17
  A 1.15 0.53 30.3 0 0 328.55 132.44
  Q 328.02 132.03 328.50 131.50
  A 0.45 0.26 32.9 0 0 328.24 131.00
  Q 326.90 130.24 326.84 128.68
  A 0.80 0.63 -81.4 0 0 326.47 128.03
  Q 325.26 127.45 326.07 126.24
  A 0.53 0.18 54.7 0 0 325.93 125.78
  Q 324.55 123.69 322.67 123.24
  A 1.10 0.93 -54.9 0 0 321.79 123.47
  Q 319.51 125.32 316.91 126.62
  C 310.15 130.00 303.83 134.23 297.17 138.03
  Q 295.03 139.25 296.65 141.10
  Q 297.36 141.91 297.64 144.97
  Q 297.68 145.48 297.87 145.96
  Q 299.01 148.84 296.54 149.75
  Q 294.94 135.43 283.20 129.01
  C 272.94 123.40 263.56 123.60 249.39 123.53
  Q 231.48 123.43 213.53 123.55
  A 0.53 0.45 -0.0 0 0 213.00 124.00
  L 213.00 186.75
  A 0.50 0.49 0.0 0 0 213.50 187.24
  L 245.75 187.21
  L 250.25 187.21
  Q 251.92 186.87 252.31 187.64
  A 0.44 0.37 -16.5 0 1 251.94 188.20
  C 248.41 188.75 244.44 188.48 241.36 188.74
  Q 230.63 189.68 219.88 189.80
  C 215.58 189.85 212.63 190.64 209.22 192.72
  Q 195.65 201.01 182.30 208.54
  Q 180.24 209.71 180.12 212.07
  C 179.79 218.32 178.74 224.34 178.80 230.34
  Q 178.85 236.16 178.70 241.98
  A 0.13 0.12 14.7 0 1 178.52 242.08
  C 178.08 241.88 177.97 249.95 177.97 250.66
  A 0.39 0.30 87.6 0 1 177.71 251.02
  Q 177.43 251.06 177.43 250.75
  Q 177.62 214.31 177.29 190.00
  L 177.29 95.54
  A 0.50 0.50 -0.6 0 1 177.78 95.04
  Q 220.02 94.92 262.17 95.04
  C 285.87 95.11 308.33 99.33 323.49 119.50
  Z"
/>
<path fill="#7111f5" d="
  M 457.71 110.25
  C 461.83 142.61 473.01 186.16 512.00 191.06
  L 512.00 217.06
  C 456.79 222.29 454.78 311.89 455.38 350.53
  Q 455.55 361.64 454.46 366.89
  C 449.65 390.16 431.13 406.23 407.44 408.00
  L 223.94 407.93
  L 105.56 407.70
  Q 105.10 407.70 105.56 407.69
  Q 116.78 407.38 128.00 407.46
  L 223.45 407.48
  A 0.55 0.48 0.0 0 0 224.00 407.00
  L 223.98 404.99
  A 1.59 0.85 76.3 0 1 224.22 404.06
  Q 237.73 386.81 251.34 369.64
  Q 264.32 353.25 277.51 337.02
  Q 280.80 332.96 283.75 328.63
  Q 284.26 327.87 283.50 327.98
  Q 281.84 328.22 280.52 327.22
  A 1.14 0.12 -6.0 0 0 279.53 327.22
  Q 272.32 327.93 265.46 325.60
  Q 276.53 325.13 287.51 324.57
  C 291.45 324.37 295.07 323.04 298.92 322.13
  C 309.77 319.57 318.52 315.04 327.55 308.04
  C 330.05 306.10 332.07 303.73 333.93 302.12
  Q 340.50 296.45 342.97 290.74
  C 344.80 286.53 346.90 282.83 347.89 278.88
  C 348.95 274.72 351.14 270.60 351.28 266.29
  Q 351.37 263.81 351.69 259.73
  Q 352.99 243.41 345.56 227.73
  Q 349.30 234.55 351.69 241.96
  Q 351.90 242.61 351.85 241.94
  C 351.50 237.80 348.29 231.42 346.68 227.44
  Q 346.48 226.93 346.96 227.14
  C 349.31 228.12 351.90 237.40 352.65 239.92
  Q 353.14 241.59 354.22 240.23
  Q 403.48 178.22 452.71 116.20
  Q 454.42 114.06 455.86 113.26
  A 1.30 1.20 -8.9 0 0 456.48 112.48
  L 457.22 109.75
  Q 457.31 109.38 457.49 109.77
  L 457.71 110.25
  Z"
/>
<path fill="#7310ee" d="
  M 345.56 227.73
  Q 352.99 243.41 351.69 259.73
  Q 351.37 263.81 351.28 266.29
  C 351.14 270.60 348.95 274.72 347.89 278.88
  C 346.90 282.83 344.80 286.53 342.97 290.74
  Q 340.50 296.45 333.93 302.12
  C 332.07 303.73 330.05 306.10 327.55 308.04
  C 318.52 315.04 309.77 319.57 298.92 322.13
  C 295.07 323.04 291.45 324.37 287.51 324.57
  Q 276.53 325.13 265.46 325.60
  L 240.86 325.09
  Q 240.35 325.08 239.75 325.20
  Q 236.44 325.85 234.37 324.54
  A 1.83 1.02 47.4 0 0 233.50 324.25
  L 221.00 324.25
  A 1.16 0.45 -3.8 0 1 220.03 323.95
  L 219.01 321.99
  A 0.80 0.53 72.2 0 0 218.45 321.54
  C 216.68 321.49 202.16 321.80 201.85 321.49
  A 0.49 0.19 49.0 0 0 201.51 321.31
  Q 197.15 322.10 192.74 321.58
  A 1.17 0.89 71.2 0 1 192.01 321.09
  Q 191.59 320.46 190.81 320.46
  Q 181.92 320.38 177.64 313.09
  Q 222.01 312.96 266.14 312.98
  C 290.52 312.99 317.34 307.20 332.71 286.25
  Q 345.33 268.05 342.95 245.78
  C 341.06 219.15 319.72 200.46 293.79 197.85
  Q 292.18 197.69 293.75 197.28
  C 321.15 190.09 337.20 165.19 331.16 137.53
  Q 329.03 127.83 323.49 119.50
  Q 324.75 119.91 325.72 120.73
  C 331.31 125.53 334.81 135.37 336.14 142.49
  Q 336.22 142.90 336.56 142.57
  L 336.82 142.31
  Q 337.12 142.02 337.15 142.77
  C 337.34 147.24 338.33 152.09 337.98 156.18
  Q 337.53 161.34 336.10 166.36
  Q 335.48 168.53 335.26 168.96
  C 332.61 174.07 330.61 179.30 327.21 183.91
  C 324.70 187.30 320.28 191.80 320.21 196.19
  Q 320.20 196.86 320.08 196.21
  L 319.92 195.28
  Q 319.82 194.75 319.65 195.18
  Q 318.71 197.62 319.04 200.24
  A 1.53 0.72 -86.7 0 0 319.39 201.11
  C 321.60 203.23 323.77 205.02 326.19 207.34
  C 329.60 210.61 333.25 212.16 335.98 216.33
  A 0.92 0.91 -16.3 0 0 336.75 216.75
  L 338.24 216.76
  A 1.25 0.69 65.7 0 1 339.07 217.38
  L 345.56 227.73
  Z"
/>
<path fill="#f7f0fd" d="
  M 331.16 137.53
  C 337.20 165.19 321.15 190.09 293.75 197.28
  Q 292.18 197.69 293.79 197.85
  C 319.72 200.46 341.06 219.15 342.95 245.78
  Q 341.03 242.48 340.93 238.56
  A 0.93 0.73 17.5 0 0 340.46 237.87
  Q 340.02 237.62 339.97 237.26
  Q 339.18 232.31 336.08 228.43
  Q 334.49 226.42 333.61 224.06
  Q 333.44 223.60 333.04 223.27
  Q 331.53 222.00 330.79 220.09
  A 0.87 0.83 82.0 0 0 330.11 219.55
  C 328.17 219.33 326.99 219.30 325.22 220.37
  Q 316.18 225.84 307.60 231.00
  Q 306.00 231.96 306.79 233.69
  Q 309.01 238.55 308.19 243.83
  A 1.27 1.00 -65.4 0 0 308.42 244.78
  C 309.77 246.30 308.64 251.63 307.98 253.78
  Q 307.46 255.48 307.80 256.50
  Q 308.00 257.09 307.95 257.45
  Q 306.73 265.00 301.55 270.57
  Q 300.87 271.30 300.00 270.71
  Q 309.44 257.38 306.40 241.96
  C 302.60 222.69 285.44 215.59 267.49 214.44
  Q 250.25 213.34 213.50 214.18
  A 0.57 0.51 89.5 0 0 213.00 214.75
  L 213.00 284.00
  A 0.49 0.49 0.0 0 0 213.49 284.49
  L 224.00 284.46
  L 239.25 284.29
  L 243.20 284.49
  A 0.69 0.24 0.2 0 1 243.77 284.69
  L 243.91 284.99
  A 0.64 0.43 -22.6 0 1 243.47 285.66
  Q 239.25 287.27 238.25 287.27
  C 233.58 287.27 228.13 286.93 223.91 289.28
  C 212.83 295.45 202.21 302.62 190.96 308.39
  C 188.77 309.52 189.66 310.31 191.33 310.36
  Q 229.34 311.57 267.36 311.20
  C 268.98 311.18 269.93 311.94 271.69 311.62
  C 275.21 310.98 278.97 311.21 282.16 310.76
  C 286.98 310.08 292.33 309.58 296.92 308.06
  C 302.32 306.27 309.09 303.43 314.76 300.45
  Q 319.65 297.87 323.62 294.12
  Q 327.60 290.35 331.17 286.16
  Q 331.96 285.23 332.71 286.25
  C 317.34 307.20 290.52 312.99 266.14 312.98
  Q 222.01 312.96 177.64 313.09
  Q 177.00 311.68 177.21 310.00
  L 177.18 194.70
  L 177.29 190.00
  Q 177.62 214.31 177.43 250.75
  Q 177.43 251.06 177.71 251.02
  A 0.39 0.30 87.6 0 0 177.97 250.66
  C 177.97 249.95 178.08 241.88 178.52 242.08
  A 0.13 0.12 14.7 0 0 178.70 241.98
  Q 178.85 236.16 178.80 230.34
  C 178.74 224.34 179.79 218.32 180.12 212.07
  Q 180.24 209.71 182.30 208.54
  Q 195.65 201.01 209.22 192.72
  C 212.63 190.64 215.58 189.85 219.88 189.80
  Q 230.63 189.68 241.36 188.74
  C 244.44 188.48 248.41 188.75 251.94 188.20
  A 0.44 0.37 -16.5 0 0 252.31 187.64
  Q 251.92 186.87 250.25 187.21
  Q 262.82 187.51 274.75 183.71
  Q 298.79 175.61 296.54 149.75
  Q 299.01 148.84 297.87 145.96
  Q 297.68 145.48 297.64 144.97
  Q 297.36 141.91 296.65 141.10
  Q 295.03 139.25 297.17 138.03
  C 303.83 134.23 310.15 130.00 316.91 126.62
  Q 319.51 125.32 321.79 123.47
  A 1.10 0.93 -54.9 0 1 322.67 123.24
  Q 324.55 123.69 325.93 125.78
  A 0.53 0.18 54.7 0 1 326.07 126.24
  Q 325.26 127.45 326.47 128.03
  A 0.80 0.63 -81.4 0 1 326.84 128.68
  Q 326.90 130.24 328.24 131.00
  A 0.45 0.26 32.9 0 1 328.50 131.50
  Q 328.02 132.03 328.55 132.44
  A 1.15 0.53 30.3 0 1 329.06 133.17
  Q 329.06 135.95 331.16 137.53
  Z"
/>
<path fill="#7310ee" d="
  M 296.54 149.75
  Q 298.79 175.61 274.75 183.71
  Q 275.38 182.03 276.90 181.16
  Q 277.51 180.81 280.38 178.36
  Q 284.88 174.53 288.01 169.59
  C 290.49 165.68 290.39 160.84 290.77 156.43
  C 291.40 148.92 285.01 140.17 278.63 136.64
  Q 274.77 134.50 273.74 134.27
  Q 255.65 130.16 237.08 130.80
  C 234.09 130.90 232.15 129.27 228.80 130.87
  Q 225.89 132.26 222.75 133.09
  A 1.34 1.20 -78.4 0 0 222.01 133.64
  Q 221.34 134.64 220.75 134.86
  C 212.84 137.85 215.89 150.55 215.94 156.62
  C 216.01 164.76 214.57 183.13 225.69 185.53
  A 2.80 2.70 -14.9 0 1 227.11 186.32
  Q 227.31 186.52 227.09 186.78
  Q 226.90 187.02 227.20 187.02
  L 245.75 187.21
  L 213.50 187.24
  A 0.50 0.49 0.0 0 1 213.00 186.75
  L 213.00 124.00
  A 0.53 0.45 -0.0 0 1 213.53 123.55
  Q 231.48 123.43 249.39 123.53
  C 263.56 123.60 272.94 123.40 283.20 129.01
  Q 294.94 135.43 296.54 149.75
  Z"
/>
<path fill="#7811f7" d="
  M 274.75 183.71
  Q 262.82 187.51 250.25 187.21
  L 245.75 187.21
  L 227.20 187.02
  Q 226.90 187.02 227.09 186.78
  Q 227.31 186.52 227.11 186.32
  A 2.80 2.70 -14.9 0 0 225.69 185.53
  C 214.57 183.13 216.01 164.76 215.94 156.62
  C 215.89 150.55 212.84 137.85 220.75 134.86
  Q 221.34 134.64 222.01 133.64
  A 1.34 1.20 -78.4 0 1 222.75 133.09
  Q 225.89 132.26 228.80 130.87
  C 232.15 129.27 234.09 130.90 237.08 130.80
  Q 255.65 130.16 273.74 134.27
  Q 274.77 134.50 278.63 136.64
  C 285.01 140.17 291.40 148.92 290.77 156.43
  C 290.39 160.84 290.49 165.68 288.01 169.59
  Q 284.88 174.53 280.38 178.36
  Q 277.51 180.81 276.90 181.16
  Q 275.38 182.03 274.75 183.71
  Z
  M 275.89 141.66
  L 276.47 141.81
  Q 276.99 141.94 276.68 141.50
  Q 275.43 139.68 273.76 139.20
  Q 253.50 133.39 231.22 134.98
  C 228.17 135.20 225.76 136.87 223.01 138.08
  A 1.27 1.07 -7.2 0 0 222.33 138.82
  L 221.19 142.99
  Q 221.05 143.48 221.11 144.01
  Q 221.22 144.93 221.05 147.01
  C 220.69 151.68 219.65 172.97 223.82 177.95
  C 228.21 183.20 240.01 183.92 246.43 181.58
  C 249.02 180.63 252.56 180.99 255.33 180.99
  C 259.79 181.00 264.19 179.30 268.46 178.15
  C 275.35 176.31 281.41 172.52 283.94 165.59
  C 286.79 157.74 284.66 146.01 275.98 142.26
  A 0.49 0.33 82.5 0 1 275.75 142.00
  L 275.68 141.82
  Q 275.58 141.57 275.89 141.66
  Z"
/>
<path fill="#8012f9" d="
  M 275.68 141.82
  L 275.75 142.00
  A 0.49 0.33 82.5 0 0 275.98 142.26
  C 284.66 146.01 286.79 157.74 283.94 165.59
  C 281.41 172.52 275.35 176.31 268.46 178.15
  C 264.19 179.30 259.79 181.00 255.33 180.99
  C 252.56 180.99 249.02 180.63 246.43 181.58
  C 240.01 183.92 228.21 183.20 223.82 177.95
  C 219.65 172.97 220.69 151.68 221.05 147.01
  Q 221.22 144.93 221.11 144.01
  Q 221.05 143.48 221.19 142.99
  L 222.33 138.82
  A 1.27 1.07 -7.2 0 1 223.01 138.08
  C 225.76 136.87 228.17 135.20 231.22 134.98
  Q 253.50 133.39 273.76 139.20
  Q 275.43 139.68 276.68 141.50
  Q 276.99 141.94 276.47 141.81
  L 275.89 141.66
  Q 275.58 141.57 275.68 141.82
  Z"
/>
<path fill="#7310ee" d="
  M 177.18 194.70
  L 177.21 310.00
  C 176.85 313.83 175.17 310.53 174.92 309.63
  Q 172.74 302.03 173.27 294.06
  Q 173.31 293.40 173.05 293.99
  L 172.89 294.34
  Q 172.78 294.59 172.78 294.32
  Q 172.72 284.34 172.76 274.38
  C 172.76 272.57 173.45 270.93 173.47 269.19
  C 173.54 261.69 173.41 255.27 174.07 246.94
  C 174.44 242.17 174.10 237.21 174.52 232.70
  C 174.64 231.41 175.82 219.64 175.23 219.47
  A 0.31 0.24 11.0 0 1 175.01 219.22
  C 174.98 207.58 175.81 195.18 175.46 183.16
  C 175.45 182.48 176.54 180.12 176.52 182.56
  Q 176.47 190.77 176.55 198.94
  Q 176.55 199.03 176.56 198.95
  L 177.18 194.70
  Z"
/>
<path fill="#7310ee" d="
  M 300.00 270.71
  Q 295.09 276.44 287.94 279.19
  Q 298.27 271.54 301.25 259.26
  C 301.87 256.70 303.03 254.31 302.22 251.30
  C 300.71 245.68 300.60 241.61 297.54 237.65
  Q 295.17 234.60 293.77 233.07
  Q 291.83 230.96 289.13 229.78
  C 287.15 228.91 286.11 227.25 283.93 226.66
  Q 279.53 225.46 275.20 224.03
  C 273.89 223.59 272.13 224.01 271.31 223.71
  C 267.09 222.15 263.62 222.35 259.26 222.07
  Q 247.58 221.34 235.86 221.23
  C 226.73 221.14 220.23 222.74 216.68 231.26
  Q 216.00 232.90 216.07 235.84
  Q 216.15 239.25 215.52 244.74
  Q 214.91 249.99 216.34 259.73
  C 217.43 267.10 215.66 272.41 219.66 278.90
  A 0.29 0.17 53.6 0 1 219.69 279.19
  L 219.56 279.31
  A 0.48 0.25 47.5 0 0 219.69 279.81
  L 222.99 283.50
  A 0.23 0.18 57.3 0 1 222.96 283.85
  Q 221.53 284.27 224.00 284.46
  L 213.49 284.49
  A 0.49 0.49 0.0 0 1 213.00 284.00
  L 213.00 214.75
  A 0.57 0.51 89.5 0 1 213.50 214.18
  Q 250.25 213.34 267.49 214.44
  C 285.44 215.59 302.60 222.69 306.40 241.96
  Q 309.44 257.38 300.00 270.71
  Z"
/>
<path fill="#f1e6fc" d="
  M 342.95 245.78
  Q 345.33 268.05 332.71 286.25
  Q 331.96 285.23 331.17 286.16
  Q 327.60 290.35 323.62 294.12
  Q 319.65 297.87 314.76 300.45
  C 309.09 303.43 302.32 306.27 296.92 308.06
  C 292.33 309.58 286.98 310.08 282.16 310.76
  C 278.97 311.21 275.21 310.98 271.69 311.62
  C 269.93 311.94 268.98 311.18 267.36 311.20
  Q 229.34 311.57 191.33 310.36
  C 189.66 310.31 188.77 309.52 190.96 308.39
  C 202.21 302.62 212.83 295.45 223.91 289.28
  C 228.13 286.93 233.58 287.27 238.25 287.27
  Q 239.25 287.27 243.47 285.66
  A 0.64 0.43 -22.6 0 0 243.91 284.99
  L 243.77 284.69
  A 0.69 0.24 0.2 0 0 243.20 284.49
  L 239.25 284.29
  C 252.30 284.36 273.00 286.05 287.94 279.19
  Q 295.09 276.44 300.00 270.71
  Q 300.87 271.30 301.55 270.57
  Q 306.73 265.00 307.95 257.45
  Q 308.00 257.09 307.80 256.50
  Q 307.46 255.48 307.98 253.78
  C 308.64 251.63 309.77 246.30 308.42 244.78
  A 1.27 1.00 -65.4 0 1 308.19 243.83
  Q 309.01 238.55 306.79 233.69
  Q 306.00 231.96 307.60 231.00
  Q 316.18 225.84 325.22 220.37
  C 326.99 219.30 328.17 219.33 330.11 219.55
  A 0.87 0.83 82.0 0 1 330.79 220.09
  Q 331.53 222.00 333.04 223.27
  Q 333.44 223.60 333.61 224.06
  Q 334.49 226.42 336.08 228.43
  Q 339.18 232.31 339.97 237.26
  Q 340.02 237.62 340.46 237.87
  A 0.93 0.73 17.5 0 1 340.93 238.56
  Q 341.03 242.48 342.95 245.78
  Z"
/>
<path fill="#7811f7" d="
  M 287.94 279.19
  C 273.00 286.05 252.30 284.36 239.25 284.29
  L 224.00 284.46
  Q 221.53 284.27 222.96 283.85
  A 0.23 0.18 57.3 0 0 222.99 283.50
  L 219.69 279.81
  A 0.48 0.25 47.5 0 1 219.56 279.31
  L 219.69 279.19
  A 0.29 0.17 53.6 0 0 219.66 278.90
  C 215.66 272.41 217.43 267.10 216.34 259.73
  Q 214.91 249.99 215.52 244.74
  Q 216.15 239.25 216.07 235.84
  Q 216.00 232.90 216.68 231.26
  C 220.23 222.74 226.73 221.14 235.86 221.23
  Q 247.58 221.34 259.26 222.07
  C 263.62 222.35 267.09 222.15 271.31 223.71
  C 272.13 224.01 273.89 223.59 275.20 224.03
  Q 279.53 225.46 283.93 226.66
  C 286.11 227.25 287.15 228.91 289.13 229.78
  Q 291.83 230.96 293.77 233.07
  Q 295.17 234.60 297.54 237.65
  C 300.60 241.61 300.71 245.68 302.22 251.30
  C 303.03 254.31 301.87 256.70 301.25 259.26
  Q 298.27 271.54 287.94 279.19
  Z"
/>
</svg>
