<?xml version="1.0" encoding="UTF-8" standalone="no"?>
<!DOCTYPE svg PUBLIC "-//W3C//DTD SVG 1.1//EN" "http://www.w3.org/Graphics/SVG/1.1/DTD/svg11.dtd">
<svg xmlns="http://www.w3.org/2000/svg" version="1.1" viewBox="0 0 512 512">
<path stroke="#8ec8f7" stroke-width="2.00" fill="none" stroke-linecap="butt" vector-effect="non-scaling-stroke" d="
  M 336.70 147.50
  L 332.52 204.00
  A 0.53 0.43 1.7 0 1 332.00 204.40
  L 124.06 206.84
  A 0.60 0.56 86.3 0 0 123.52 207.50
  L 129.01 259.75
  A 0.99 0.88 -2.9 0 0 130.00 260.54
  L 327.25 259.95
  A 0.49 0.43 -86.4 0 1 327.67 260.49
  L 319.20 337.74
  A 0.99 0.86 86.6 0 1 318.56 338.57
  L 256.51 355.29
  A 2.23 1.36 -33.6 0 1 255.43 355.33
  L 193.43 338.58
  A 0.82 0.62 7.7 0 1 192.83 337.99
  L 188.68 292.00
  A 0.81 0.67 87.3 0 0 188.00 291.25
  L 132.31 291.26
  A 0.50 0.47 87.2 0 0 131.84 291.81
  L 139.85 381.49
  A 0.90 0.87 -85.0 0 0 140.49 382.28
  L 255.53 414.14
  A 1.80 1.05 -32.2 0 0 256.42 414.11
  L 371.31 382.32
  A 1.12 0.90 -7.5 0 0 372.11 381.49
  L 397.76 94.75
  A 0.51 0.45 2.5 0 0 397.25 94.25
  L 114.75 94.25
  A 0.51 0.46 -2.1 0 0 114.24 94.75
  L 117.77 147.00
  A 0.74 0.59 -1.6 0 0 118.50 147.55
  L 336.25 146.94
  A 0.52 0.46 -87.7 0 1 336.70 147.50"
/>
<path fill="#2196f3" d="
  M 32.06 0.00
  L 479.91 0.01
  L 439.22 459.84
  A 1.53 1.52 85.0 0 1 438.11 461.17
  L 256.44 512.00
  Q 255.92 512.06 255.46 511.92
  L 73.30 460.86
  A 0.74 0.72 5.9 0 1 72.77 460.22
  L 32.06 0.00
  Z
  M 336.70 147.50
  L 332.52 204.00
  A 0.53 0.43 1.7 0 1 332.00 204.40
  L 124.06 206.84
  A 0.60 0.56 86.3 0 0 123.52 207.50
  L 129.01 259.75
  A 0.99 0.88 -2.9 0 0 130.00 260.54
  L 327.25 259.95
  A 0.49 0.43 -86.4 0 1 327.67 260.49
  L 319.20 337.74
  A 0.99 0.86 86.6 0 1 318.56 338.57
  L 256.51 355.29
  A 2.23 1.36 -33.6 0 1 255.43 355.33
  L 193.43 338.58
  A 0.82 0.62 7.7 0 1 192.83 337.99
  L 188.68 292.00
  A 0.81 0.67 87.3 0 0 188.00 291.25
  L 132.31 291.26
  A 0.50 0.47 87.2 0 0 131.84 291.81
  L 139.85 381.49
  A 0.90 0.87 -85.0 0 0 140.49 382.28
  L 255.53 414.14
  A 1.80 1.05 -32.2 0 0 256.42 414.11
  L 371.31 382.32
  A 1.12 0.90 -7.5 0 0 372.11 381.49
  L 397.76 94.75
  A 0.51 0.45 2.5 0 0 397.25 94.25
  L 114.75 94.25
  A 0.51 0.46 -2.1 0 0 114.24 94.75
  L 117.77 147.00
  A 0.74 0.59 -1.6 0 0 118.50 147.55
  L 336.25 146.94
  A 0.52 0.46 -87.7 0 1 336.70 147.50
  Z"
/>
<path fill="#fafafa" d="
  M 336.25 146.94
  L 118.50 147.55
  A 0.74 0.59 -1.6 0 1 117.77 147.00
  L 114.24 94.75
  A 0.51 0.46 -2.1 0 1 114.75 94.25
  L 397.25 94.25
  A 0.51 0.45 2.5 0 1 397.76 94.75
  L 372.11 381.49
  A 1.12 0.90 -7.5 0 1 371.31 382.32
  L 256.42 414.11
  A 1.80 1.05 -32.2 0 1 255.53 414.14
  L 140.49 382.28
  A 0.90 0.87 -85.0 0 1 139.85 381.49
  L 131.84 291.81
  A 0.50 0.47 87.2 0 1 132.31 291.26
  L 188.00 291.25
  A 0.81 0.67 87.3 0 1 188.68 292.00
  L 192.83 337.99
  A 0.82 0.62 7.7 0 0 193.43 338.58
  L 255.43 355.33
  A 2.23 1.36 -33.6 0 0 256.51 355.29
  L 318.56 338.57
  A 0.99 0.86 86.6 0 0 319.20 337.74
  L 327.67 260.49
  A 0.49 0.43 -86.4 0 0 327.25 259.95
  L 130.00 260.54
  A 0.99 0.88 -2.9 0 1 129.01 259.75
  L 123.52 207.50
  A 0.60 0.56 86.3 0 1 124.06 206.84
  L 332.00 204.40
  A 0.53 0.43 1.7 0 0 332.52 204.00
  L 336.70 147.50
  A 0.52 0.46 -87.7 0 0 336.25 146.94
  Z"
/>
</svg>
