<?xml version="1.0" encoding="UTF-8" standalone="no"?>
<!DOCTYPE svg PUBLIC "-//W3C//DTD SVG 1.1//EN" "http://www.w3.org/Graphics/SVG/1.1/DTD/svg11.dtd">
<svg xmlns="http://www.w3.org/2000/svg" version="1.1" viewBox="0 0 512 512">
<path stroke="#fda98e" stroke-width="2.00" fill="none" stroke-linecap="butt" vector-effect="non-scaling-stroke" d="
  M 325.03 265.75
  L 318.59 338.01
  A 0.72 0.56 -7.4 0 1 318.06 338.55
  L 256.51 355.29
  A 2.21 1.25 -31.3 0 1 255.48 355.32
  L 193.93 338.59
  A 0.74 0.53 8.7 0 1 193.39 338.07
  L 189.29 292.00
  A 0.61 0.54 87.1 0 0 188.75 291.44
  L 133.31 291.35
  A 0.36 0.35 87.1 0 0 132.96 291.75
  L 140.92 381.81
  A 0.71 0.47 8.8 0 0 141.44 382.28
  L 255.29 414.12
  A 1.78 0.67 25.5 0 0 256.24 414.20
  L 370.71 382.25
  A 0.61 0.41 88.7 0 0 371.03 381.75
  L 386.33 209.26
  A 0.82 0.70 2.2 0 0 385.50 208.50
  L 182.25 208.50
  A 0.39 0.34 -1.5 0 1 181.86 208.18
  L 176.84 151.24
  A 0.45 0.41 87.5 0 1 177.25 150.75
  L 390.75 150.75
  A 0.87 0.74 2.1 0 0 391.61 150.07
  L 396.45 94.74
  A 0.45 0.45 -87.7 0 0 396.00 94.25
  L 116.00 94.25
  A 0.49 0.46 -2.2 0 0 115.51 94.75
  L 130.55 264.50
  A 0.97 0.83 -2.3 0 0 131.50 265.25
  L 324.56 265.24
  A 0.47 0.46 2.8 0 1 325.03 265.75"
/>
<path fill="#ff5722" d="
  M 32.16 0.01
  L 480.06 0.00
  L 439.11 460.31
  A 0.75 0.74 -5.3 0 1 438.57 460.95
  L 256.44 512.00
  L 255.69 512.00
  L 73.63 461.08
  A 1.22 1.20 5.6 0 1 72.75 460.02
  L 32.16 0.01
  Z
  M 325.03 265.75
  L 318.59 338.01
  A 0.72 0.56 -7.4 0 1 318.06 338.55
  L 256.51 355.29
  A 2.21 1.25 -31.3 0 1 255.48 355.32
  L 193.93 338.59
  A 0.74 0.53 8.7 0 1 193.39 338.07
  L 189.29 292.00
  A 0.61 0.54 87.1 0 0 188.75 291.44
  L 133.31 291.35
  A 0.36 0.35 87.1 0 0 132.96 291.75
  L 140.92 381.81
  A 0.71 0.47 8.8 0 0 141.44 382.28
  L 255.29 414.12
  A 1.78 0.67 25.5 0 0 256.24 414.20
  L 370.71 382.25
  A 0.61 0.41 88.7 0 0 371.03 381.75
  L 386.33 209.26
  A 0.82 0.70 2.2 0 0 385.50 208.50
  L 182.25 208.50
  A 0.39 0.34 -1.5 0 1 181.86 208.18
  L 176.84 151.24
  A 0.45 0.41 87.5 0 1 177.25 150.75
  L 390.75 150.75
  A 0.87 0.74 2.1 0 0 391.61 150.07
  L 396.45 94.74
  A 0.45 0.45 -87.7 0 0 396.00 94.25
  L 116.00 94.25
  A 0.49 0.46 -2.2 0 0 115.51 94.75
  L 130.55 264.50
  A 0.97 0.83 -2.3 0 0 131.50 265.25
  L 324.56 265.24
  A 0.47 0.46 2.8 0 1 325.03 265.75
  Z"
/>
<path fill="#fafafa" d="
  M 324.56 265.24
  L 131.50 265.25
  A 0.97 0.83 -2.3 0 1 130.55 264.50
  L 115.51 94.75
  A 0.49 0.46 -2.2 0 1 116.00 94.25
  L 396.00 94.25
  A 0.45 0.45 -87.7 0 1 396.45 94.74
  L 391.61 150.07
  A 0.87 0.74 2.1 0 1 390.75 150.75
  L 177.25 150.75
  A 0.45 0.41 87.5 0 0 176.84 151.24
  L 181.86 208.18
  A 0.39 0.34 -1.5 0 0 182.25 208.50
  L 385.50 208.50
  A 0.82 0.70 2.2 0 1 386.33 209.26
  L 371.03 381.75
  A 0.61 0.41 88.7 0 1 370.71 382.25
  L 256.24 414.20
  A 1.78 0.67 25.5 0 1 255.29 414.12
  L 141.44 382.28
  A 0.71 0.47 8.8 0 1 140.92 381.81
  L 132.96 291.75
  A 0.36 0.35 87.1 0 1 133.31 291.35
  L 188.75 291.44
  A 0.61 0.54 87.1 0 1 189.29 292.00
  L 193.39 338.07
  A 0.74 0.53 8.7 0 0 193.93 338.59
  L 255.48 355.32
  A 2.21 1.25 -31.3 0 0 256.51 355.29
  L 318.06 338.55
  A 0.72 0.56 -7.4 0 0 318.59 338.01
  L 325.03 265.75
  A 0.47 0.46 2.8 0 0 324.56 265.24
  Z"
/>
</svg>
