<?xml version="1.0" encoding="UTF-8" standalone="no"?>
<!DOCTYPE svg PUBLIC "-//W3C//DTD SVG 1.1//EN" "http://www.w3.org/Graphics/SVG/1.1/DTD/svg11.dtd">
<svg xmlns="http://www.w3.org/2000/svg" version="1.1" viewBox="0 0 512 512">
<g stroke-width="2.00" fill="none" stroke-linecap="butt">
<path stroke="#807000" vector-effect="non-scaling-stroke" d="
  M 319.32 295.51
  C 318.92 347.37 360.72 361.18 399.63 378.42
  C 410.11 383.06 421.67 389.13 423.67 401.27
  C 425.92 414.92 416.30 424.79 403.75 427.71
  C 378.37 433.61 357.29 422.43 344.41 400.56
  A 0.73 0.63 59.6 0 0 343.50 400.25
  L 305.35 422.39
  A 0.60 0.54 61.2 0 0 305.17 423.17
  C 327.06 464.92 373.97 478.54 418.05 469.00
  C 458.25 460.31 478.88 427.58 470.39 387.07
  C 462.48 349.35 422.26 335.42 391.52 321.97
  C 377.92 316.02 363.72 308.17 367.25 290.71
  Q 370.01 277.04 385.50 274.71
  C 401.25 272.34 412.93 280.68 420.08 294.15
  A 0.99 0.90 -30.7 0 0 421.44 294.43
  L 457.67 271.16
  A 0.48 0.47 58.5 0 0 457.81 270.53
  C 446.16 249.72 429.11 237.04 405.25 233.51
  C 363.01 227.26 319.68 247.93 319.32 295.51"
/>
<path stroke="#807000" vector-effect="non-scaling-stroke" d="
  M 135.20 428.26
  C 151.75 464.82 191.09 477.72 228.32 469.58
  C 262.71 462.06 278.77 434.75 278.76 401.49
  Q 278.72 318.62 278.77 235.66
  A 0.65 0.52 -89.5 0 0 278.25 235.00
  L 231.25 235.00
  A 0.50 0.48 -0.0 0 0 230.75 235.48
  Q 230.75 316.50 230.76 397.50
  C 230.77 412.38 227.83 426.42 210.44 428.55
  C 190.84 430.95 182.79 419.75 174.17 404.68
  A 0.52 0.48 59.3 0 0 173.48 404.47
  L 135.46 427.48
  A 0.63 0.61 -27.8 0 0 135.20 428.26"
/>
</g>
<path fill="#ffdf00" d="
  M 0.00 0.00
  L 512.00 0.00
  L 512.00 512.00
  L 0.00 512.00
  L 0.00 0.00
  Z
  M 319.32 295.51
  C 318.92 347.37 360.72 361.18 399.63 378.42
  C 410.11 383.06 421.67 389.13 423.67 401.27
  C 425.92 414.92 416.30 424.79 403.75 427.71
  C 378.37 433.61 357.29 422.43 344.41 400.56
  A 0.73 0.63 59.6 0 0 343.50 400.25
  L 305.35 422.39
  A 0.60 0.54 61.2 0 0 305.17 423.17
  C 327.06 464.92 373.97 478.54 418.05 469.00
  C 458.25 460.31 478.88 427.58 470.39 387.07
  C 462.48 349.35 422.26 335.42 391.52 321.97
  C 377.92 316.02 363.72 308.17 367.25 290.71
  Q 370.01 277.04 385.50 274.71
  C 401.25 272.34 412.93 280.68 420.08 294.15
  A 0.99 0.90 -30.7 0 0 421.44 294.43
  L 457.67 271.16
  A 0.48 0.47 58.5 0 0 457.81 270.53
  C 446.16 249.72 429.11 237.04 405.25 233.51
  C 363.01 227.26 319.68 247.93 319.32 295.51
  Z
  M 135.20 428.26
  C 151.75 464.82 191.09 477.72 228.32 469.58
  C 262.71 462.06 278.77 434.75 278.76 401.49
  Q 278.72 318.62 278.77 235.66
  A 0.65 0.52 -89.5 0 0 278.25 235.00
  L 231.25 235.00
  A 0.50 0.48 -0.0 0 0 230.75 235.48
  Q 230.75 316.50 230.76 397.50
  C 230.77 412.38 227.83 426.42 210.44 428.55
  C 190.84 430.95 182.79 419.75 174.17 404.68
  A 0.52 0.48 59.3 0 0 173.48 404.47
  L 135.46 427.48
  A 0.63 0.61 -27.8 0 0 135.20 428.26
  Z"
/>
<path fill="#000000" d="
  M 399.63 378.42
  C 360.72 361.18 318.92 347.37 319.32 295.51
  C 319.68 247.93 363.01 227.26 405.25 233.51
  C 429.11 237.04 446.16 249.72 457.81 270.53
  A 0.48 0.47 58.5 0 1 457.67 271.16
  L 421.44 294.43
  A 0.99 0.90 -30.7 0 1 420.08 294.15
  C 412.93 280.68 401.25 272.34 385.50 274.71
  Q 370.01 277.04 367.25 290.71
  C 363.72 308.17 377.92 316.02 391.52 321.97
  C 422.26 335.42 462.48 349.35 470.39 387.07
  C 478.88 427.58 458.25 460.31 418.05 469.00
  C 373.97 478.54 327.06 464.92 305.17 423.17
  A 0.60 0.54 61.2 0 1 305.35 422.39
  L 343.50 400.25
  A 0.73 0.63 59.6 0 1 344.41 400.56
  C 357.29 422.43 378.37 433.61 403.75 427.71
  C 416.30 424.79 425.92 414.92 423.67 401.27
  C 421.67 389.13 410.11 383.06 399.63 378.42
  Z"
/>
<path fill="#000000" d="
  M 228.32 469.58
  C 191.09 477.72 151.75 464.82 135.20 428.26
  A 0.63 0.61 -27.8 0 1 135.46 427.48
  L 173.48 404.47
  A 0.52 0.48 59.3 0 1 174.17 404.68
  C 182.79 419.75 190.84 430.95 210.44 428.55
  C 227.83 426.42 230.77 412.38 230.76 397.50
  Q 230.75 316.50 230.75 235.48
  A 0.50 0.48 0.0 0 1 231.25 235.00
  L 278.25 235.00
  A 0.65 0.52 -89.5 0 1 278.77 235.66
  Q 278.72 318.62 278.76 401.49
  C 278.77 434.75 262.71 462.06 228.32 469.58
  Z"
/>
</svg>
